<svg xmlns="http://www.w3.org/2000/svg" viewBox="95 72 545 272" role="img" aria-label="KAM-Q mascot: an envelope in a red KAM headband kicking a magnifying-glass Q"><ellipse cx="205" cy="328" rx="38" ry="5" fill="#CFE0F5"/><circle cx="156" cy="321" r="7" fill="#D6E4F7" stroke="#BCD3F2" stroke-width="2"/><circle cx="142" cy="314" r="5" fill="#D6E4F7" stroke="#BCD3F2" stroke-width="2"/><circle cx="130" cy="322" r="4" fill="#D6E4F7" stroke="#BCD3F2" stroke-width="2"/><path d="M262 296 Q336 304 372 258" fill="none" stroke="#A9C9F5" stroke-width="7" stroke-linecap="round"/><path d="M282 310 Q352 314 388 266" fill="none" stroke="#CFE0F5" stroke-width="4" stroke-linecap="round"/><path d="M167 194 Q140 178 122 160" fill="none" stroke="#0B1A36" stroke-width="7" stroke-linecap="round"/><circle cx="116" cy="154" r="11" fill="#FFFFFF" stroke="#0B1A36" stroke-width="4"/><path d="M211 256 Q203 282 203 308" fill="none" stroke="#0B1A36" stroke-width="8" stroke-linecap="round"/><ellipse cx="200" cy="316" rx="26" ry="11" fill="#FF5A5F" stroke="#0B1A36" stroke-width="4"/><line x1="280" y1="242" x2="366" y2="230" stroke="#0B1A36" stroke-width="8" stroke-linecap="round"/><rect x="364" y="212" width="18" height="36" rx="8" transform="rotate(-8 373 230)" fill="#FF5A5F" stroke="#0B1A36" stroke-width="4"/><g transform="rotate(-12 235 200)"><rect x="170" y="150" width="130" height="100" rx="10" fill="#FFFFFF" stroke="#0B1A36" stroke-width="5"/><path d="M170 160 L235 208 L300 160" fill="#D6E8FF" stroke="#0B1A36" stroke-width="5" stroke-linejoin="round"/><circle cx="216" cy="183" r="9" fill="#FFFFFF" stroke="#0B1A36" stroke-width="3"/><circle cx="254" cy="183" r="9" fill="#FFFFFF" stroke="#0B1A36" stroke-width="3"/><circle cx="221" cy="184" r="4" fill="#0B1A36"/><circle cx="259" cy="184" r="4" fill="#0B1A36"/><circle cx="198" cy="226" r="6" fill="#FFB3C1"/><circle cx="272" cy="226" r="6" fill="#FFB3C1"/><path d="M208 222 Q235 252 262 222 Z" fill="#FFFFFF" stroke="#0B1A36" stroke-width="3" stroke-linejoin="round"/><line x1="222" y1="226" x2="222" y2="233" stroke="#0B1A36" stroke-width="2"/><line x1="235" y1="228" x2="235" y2="238" stroke="#0B1A36" stroke-width="2"/><line x1="248" y1="226" x2="248" y2="233" stroke="#0B1A36" stroke-width="2"/><rect x="168" y="156" width="134" height="17" fill="#FF3B30" stroke="#0B1A36" stroke-width="3"/><text x="235" y="169" text-anchor="middle" style="font-family:sans-serif;font-weight:800;font-size:13px;fill:#FFFFFF;letter-spacing:1.5px">KAM</text><path d="M168 160 L152 154 L156 162 L148 168 L168 169 Z" fill="#FF3B30" stroke="#0B1A36" stroke-width="2.5" stroke-linejoin="round"/></g><path d="M293 164 Q326 160 322 190" fill="none" stroke="#0B1A36" stroke-width="7" stroke-linecap="round"/><circle cx="319" cy="199" r="11" fill="#FFFFFF" stroke="#0B1A36" stroke-width="4"/><path d="M519 128 Q576 84 626 100" fill="none" stroke="#9DB9E3" stroke-width="3" stroke-dasharray="7 7" stroke-linecap="round"/><g transform="translate(14 0)"><circle cx="474" cy="192" r="48" fill="none" stroke="#1F6FEB" stroke-width="22"/><path d="M490 147 A48 48 0 0 1 519 208" fill="none" stroke="#19D3E6" stroke-width="22"/><line x1="508" y1="226" x2="541" y2="259" stroke="#1F6FEB" stroke-width="22" stroke-linecap="round"/><rect x="454" y="178" width="40" height="28" rx="4" fill="#FFFFFF" stroke="#0B1A36" stroke-width="3"/><path d="M454 180 L474 195 L494 180" fill="none" stroke="#0B1A36" stroke-width="3" stroke-linejoin="round"/></g><polygon points="434,214 420,218 427,231 414,224 410,238 406,224 393,231 400,218 386,214 400,210 393,197 406,204 410,190 414,204 427,197 420,210" fill="#FFD23F" stroke="#0B1A36" stroke-width="3" stroke-linejoin="round"/><line x1="380" y1="186" x2="388" y2="195" stroke="#0B1A36" stroke-width="3" stroke-linecap="round"/><line x1="402" y1="172" x2="405" y2="184" stroke="#0B1A36" stroke-width="3" stroke-linecap="round"/></svg>